<?xml version="1.0" standalone="no"?>
<!DOCTYPE svg PUBLIC "-//W3C//DTD SVG 20010904//EN"
 "http://www.w3.org/TR/2001/REC-SVG-20010904/DTD/svg10.dtd">
<svg version="1.0" xmlns="http://www.w3.org/2000/svg"
 width="500.000000pt" height="409.000000pt" viewBox="0 0 500.000000 409.000000"
 preserveAspectRatio="xMidYMid meet">

<g transform="translate(0.000000,409.000000) scale(0.100000,-0.100000)"
fill="#000000" stroke="none">
<path d="M2880 3779 c0 -9 10 -31 23 -50 17 -26 37 -39 87 -56 36 -12 82 -22
104 -23 38 0 106 32 106 51 0 5 -13 0 -29 -12 -26 -19 -39 -21 -96 -17 -84 7
-151 40 -176 88 -11 19 -19 28 -19 19z"/>
<path d="M2225 3561 c-110 -32 -295 -120 -295 -140 0 -4 53 19 118 50 64 32
153 67 197 79 102 26 106 28 70 28 -16 1 -57 -7 -90 -17z"/>
<path d="M2880 3502 c-17 -42 -43 -77 -101 -134 -78 -77 -88 -94 -38 -60 65
43 152 156 164 214 11 50 0 41 -25 -20z"/>
<path d="M2492 3504 c-50 -35 -5 -104 67 -104 46 0 61 14 61 56 0 39 -29 64
-75 64 -17 0 -41 -7 -53 -16z"/>
<path d="M3052 3493 c-24 -60 15 -272 56 -305 14 -11 15 -10 8 7 -44 111 -49
134 -50 223 -1 50 -2 92 -4 92 -1 0 -6 -8 -10 -17z"/>
<path d="M1568 3410 c10 -68 -78 -183 -167 -217 l-36 -14 38 5 c77 10 182 129
180 204 -1 19 -5 38 -10 43 -6 6 -8 -2 -5 -21z"/>
<path d="M2273 3383 c-57 -10 -49 -62 14 -88 67 -28 113 -15 113 32 0 36 -67
66 -127 56z"/>
<path d="M3345 3337 c46 -37 166 -158 212 -214 18 -21 32 -33 32 -26 2 32
-236 273 -269 273 -8 0 2 -14 25 -33z"/>
<path d="M2011 3331 c-24 -24 -26 -42 -9 -59 31 -31 93 4 86 50 -4 32 -49 37
-77 9z"/>
<path d="M2730 3253 c0 -17 90 -63 150 -77 74 -18 180 -21 180 -6 0 6 -28 10
-65 10 -89 0 -155 16 -209 51 -50 31 -56 33 -56 22z"/>
<path d="M1712 3206 c15 -13 52 -34 83 -45 67 -25 205 -40 205 -22 0 7 -20 11
-54 11 -61 0 -178 33 -218 61 -37 27 -48 23 -16 -5z"/>
<path d="M3247 3189 c-44 -62 107 -191 161 -137 31 31 -7 101 -70 131 -62 28
-75 29 -91 6z"/>
<path d="M1590 3098 c0 -7 12 -26 26 -43 32 -38 71 -121 90 -194 l14 -56 -4
56 c-3 33 -16 80 -31 113 -28 59 -95 147 -95 124z"/>
<path d="M1974 3045 c-28 -60 -89 -131 -146 -167 -54 -35 -49 -53 6 -19 71 44
175 181 163 214 -2 7 -13 -6 -23 -28z"/>
<path d="M3853 3035 c-14 -30 -15 -44 -6 -88 16 -76 61 -148 107 -171 28 -14
41 -15 49 -7 8 8 5 11 -14 11 -78 2 -167 211 -114 270 11 12 13 20 6 20 -6 0
-19 -16 -28 -35z"/>
<path d="M3042 3043 c-20 -17 -20 -23 -11 -107 20 -189 68 -276 154 -276 77 0
69 193 -12 311 -55 79 -96 102 -131 72z"/>
<path d="M2674 3029 c-17 -19 -17 -23 -3 -47 20 -37 53 -40 75 -8 15 24 15 28
0 51 -20 30 -47 32 -72 4z"/>
<path d="M2870 2918 c-29 -31 -28 -113 3 -159 18 -27 31 -35 59 -37 46 -4 68
24 68 86 0 103 -76 167 -130 110z"/>
<path d="M3384 2931 c3 -5 35 -17 70 -26 74 -20 218 -17 239 4 10 11 3 11 -33
5 -65 -13 -168 -8 -219 10 -49 18 -65 20 -57 7z"/>
<path d="M2122 2884 c-92 -46 -178 -167 -221 -310 -26 -88 -26 -146 -1 -203
11 -24 20 -45 20 -47 0 -12 -22 -1 -44 21 -20 20 -35 25 -72 25 -40 0 -45 2
-39 18 16 38 16 62 1 93 -9 18 -16 40 -16 49 0 18 -30 50 -48 50 -6 0 -19 -10
-29 -23 -10 -13 -33 -32 -51 -42 -25 -15 -34 -29 -38 -57 -5 -26 -10 -35 -21
-31 -9 4 -18 -5 -26 -26 -6 -17 -19 -33 -28 -36 -9 -3 -24 -14 -34 -25 -13
-15 -31 -20 -68 -20 l-50 0 7 113 c3 61 13 141 21 177 28 120 29 126 16 114
-21 -19 -52 -196 -54 -306 l-2 -108 -234 0 -233 0 -39 -39 -39 -39 1 -743 c1
-409 4 -864 8 -1011 l6 -268 33 -32 32 -33 718 -3 c394 -2 736 0 759 3 29 4
54 17 78 39 l35 33 0 412 c0 294 3 419 12 434 6 12 34 58 62 102 53 83 64 102
116 195 16 30 48 87 70 125 46 82 49 112 14 154 -21 26 -33 31 -67 31 -23 0
-49 -6 -58 -13 -9 -7 -37 -49 -64 -94 -42 -72 -50 -81 -66 -72 -16 8 -19 22
-19 94 0 51 5 93 12 105 10 16 10 24 0 40 -6 11 -12 33 -12 49 0 22 6 30 24
35 22 5 86 68 86 84 0 4 -9 21 -20 39 -13 23 -29 34 -55 39 l-35 6 0 129 0
129 -34 38 -34 37 -95 3 -95 4 14 46 c7 26 14 56 14 67 0 24 29 81 78 154 33
47 37 60 37 116 0 56 -4 68 -38 118 -27 39 -50 60 -78 71 -52 21 -56 21 -117
-10z m-393 -410 c12 -15 21 -32 21 -39 0 -7 -9 -24 -21 -39 -40 -50 -119 -22
-119 43 0 59 81 83 119 35z m125 -156 c8 -13 8 -23 0 -35 -10 -16 -31 -18
-168 -21 -157 -3 -196 4 -196 33 0 7 7 21 16 30 13 13 40 15 176 13 140 -3
162 -5 172 -20z m553 -50 c37 -38 42 -93 42 -533 l1 -360 -50 -85 -50 -85 0
498 0 497 -164 0 -164 0 -30 30 c-24 23 -39 30 -70 30 -36 0 -40 2 -35 20 5
21 11 21 249 18 l244 -3 27 -27z m-939 5 c2 -8 -6 -13 -22 -13 -36 0 -78 -18
-93 -40 -12 -18 -26 -20 -116 -20 -56 0 -151 -3 -212 -6 l-110 -7 3 -956 c3
-711 7 -959 15 -966 8 -7 241 -9 717 -5 l705 5 0 290 1 290 37 60 c20 33 41
67 46 75 14 21 14 -735 1 -761 -25 -46 -22 -46 -791 -54 -660 -7 -729 -6 -757
9 -62 32 -59 -22 -63 1064 l-4 994 33 29 33 29 286 -2 c218 -2 287 -6 291 -15z
m498 -56 c33 -28 35 -71 5 -100 -21 -21 -31 -22 -289 -25 l-268 -3 -27 27
c-32 32 -34 53 -7 87 24 30 39 32 362 35 193 2 197 1 224 -21z m-626 -66 c0
-17 10 -38 26 -55 l27 -26 284 0 285 0 29 29 c17 17 29 40 29 55 l0 26 155 0
155 0 0 -511 0 -510 -25 -37 c-14 -20 -25 -40 -25 -45 0 -5 -13 -27 -28 -50
-16 -23 -36 -55 -44 -72 -8 -16 -32 -59 -53 -95 -21 -36 -60 -104 -87 -152
l-49 -88 -242 -2 c-155 -2 -241 -7 -239 -13 1 -6 87 -10 232 -10 127 0 230 -2
230 -5 0 -3 -7 -13 -14 -23 -12 -15 -35 -17 -229 -17 -133 0 -218 -4 -222 -10
-4 -7 68 -10 209 -10 119 0 216 -2 216 -5 0 -3 -7 -16 -15 -29 -10 -15 -16
-52 -18 -107 -2 -80 -1 -84 20 -87 14 -2 46 13 83 40 49 34 70 58 104 118 24
41 60 104 81 140 21 36 54 94 74 129 l36 64 6 -89 c4 -49 7 -161 8 -250 l1
-161 -187 -6 c-104 -4 -416 -7 -694 -7 l-506 0 -6 602 c-4 331 -7 756 -7 944
l0 343 103 4 c56 1 146 4 200 5 l97 2 0 -29z m1382 -528 c10 -9 18 -27 18 -40
0 -27 -36 -103 -49 -103 -12 0 -100 50 -106 60 -6 10 11 44 39 78 23 26 71 29
98 5z m-133 -127 c10 -12 1 -34 -45 -113 -53 -93 -227 -393 -264 -458 -28 -48
-87 -149 -127 -217 -39 -69 -64 -113 -113 -200 -28 -51 -34 -57 -51 -48 -25
14 -24 30 4 71 21 32 51 82 102 174 22 40 62 109 130 225 70 119 108 186 130
225 12 22 39 69 60 105 20 36 49 85 63 110 14 25 33 57 43 72 11 14 19 30 19
35 0 11 21 33 31 33 4 0 12 -6 18 -14z m-100 -47 c-13 -26 -19 -24 -19 6 0 17
4 23 15 19 11 -5 12 -11 4 -25z m181 -1 c0 -9 -34 -70 -158 -283 -19 -33 -45
-78 -57 -100 -32 -56 -362 -627 -372 -643 -6 -11 -12 -10 -28 2 -23 17 -29 1
53 141 19 33 43 75 53 93 11 18 54 93 96 165 42 73 88 153 102 178 14 25 82
143 151 261 111 191 127 214 142 204 10 -6 18 -14 18 -18z m-616 -1056 c3 -5
-8 -16 -24 -26 -28 -16 -31 -16 -55 0 -19 12 -25 25 -25 50 l0 34 49 -25 c27
-13 52 -28 55 -33z"/>
<path d="M1642 2478 c-17 -17 -15 -64 4 -83 23 -22 56 -15 73 16 13 24 13 29
-2 53 -19 28 -54 35 -75 14z m47 -58 c-16 -11 -29 -4 -29 16 0 12 4 13 21 3
17 -9 19 -13 8 -19z"/>
<path d="M1287 1914 c-18 -19 18 -24 161 -24 236 0 532 12 532 22 0 9 -683 11
-693 2z"/>
<path d="M1415 1750 l-49 -50 -98 0 c-98 0 -99 0 -109 -27 -7 -20 -7 -33 0
-45 6 -10 11 -40 11 -68 l0 -50 95 0 95 0 0 62 0 62 66 67 c46 46 65 72 61 83
-10 24 -19 20 -72 -34z m-112 -112 l-43 -42 -35 34 c-19 19 -35 38 -35 42 0 4
35 8 77 8 l78 0 -42 -42z m37 -68 l0 -40 -75 0 -75 0 0 36 0 36 29 -31 c16
-17 33 -31 38 -31 5 0 24 16 43 35 19 19 35 35 37 35 2 0 3 -18 3 -40z"/>
<path d="M1530 1640 c0 -6 105 -10 294 -10 186 0 297 4 301 10 4 7 -97 10
-294 10 -194 0 -301 -4 -301 -10z"/>
<path d="M1803 1583 c-173 -2 -273 -7 -273 -13 0 -7 104 -9 298 -8 191 2 296
7 295 13 -3 12 17 11 -320 8z"/>
<path d="M1414 1404 l-49 -47 -97 2 c-92 2 -98 1 -98 -18 0 -11 -5 -23 -10
-26 -6 -4 -7 -12 -3 -18 4 -7 10 -39 13 -72 l5 -60 90 0 90 0 3 61 c3 60 4 61
67 124 96 95 84 145 -11 54z m-112 -116 l-42 -43 -35 38 c-19 21 -35 40 -35
43 0 2 35 4 77 4 l78 0 -43 -42z m38 -68 l0 -40 -75 0 -75 0 0 37 0 37 35 -34
35 -34 38 37 c20 20 38 37 39 37 2 0 3 -18 3 -40z"/>
<path d="M1570 1301 c-25 -3 -40 -9 -35 -13 15 -10 595 4 589 14 -6 9 -483 8
-554 -1z"/>
<path d="M1530 1230 c0 -6 107 -10 300 -10 193 0 300 4 300 10 0 6 -107 10
-300 10 -193 0 -300 -4 -300 -10z"/>
<path d="M1415 1060 l-49 -50 -97 0 c-113 0 -109 5 -101 -113 l5 -77 93 0 94
0 0 58 0 57 71 72 c47 48 69 78 65 88 -9 26 -30 17 -81 -35z m-75 -78 c0 -9
-68 -72 -78 -72 -9 0 -72 63 -72 72 0 4 34 8 75 8 41 0 75 -4 75 -8z m-75
-132 c5 0 24 14 42 32 l33 32 0 -37 0 -37 -75 0 -75 0 0 37 0 37 33 -32 c18
-18 37 -32 42 -32z"/>
<path d="M1530 950 c0 -6 107 -10 300 -10 193 0 300 4 300 10 0 6 -107 10
-300 10 -193 0 -300 -4 -300 -10z"/>
<path d="M1535 880 c4 -6 113 -10 295 -10 182 0 291 4 295 10 4 7 -97 10 -295
10 -198 0 -299 -3 -295 -10z"/>
<path d="M1174 657 c-2 -7 -4 -52 -2 -98 l3 -84 93 -3 93 -3 -3 98 -3 98 -88
3 c-67 2 -89 0 -93 -11z m166 -92 l0 -76 -72 3 -73 3 -3 73 -3 72 76 0 75 0 0
-75z"/>
<path d="M3357 2863 c-22 -36 42 -219 94 -269 43 -41 43 -25 0 29 -40 51 -68
122 -79 202 -5 30 -11 45 -15 38z"/>
<path d="M1664 2762 c-6 -4 -16 -17 -23 -30 -10 -19 -10 -28 4 -48 18 -28 23
-29 53 -8 16 11 22 24 20 41 -3 28 -37 56 -54 45z"/>
<path d="M3710 2751 c-50 -27 -135 -111 -159 -159 -34 -67 -24 -69 19 -4 46
68 105 125 155 149 19 9 35 20 35 25 0 12 -11 9 -50 -11z"/>
<path d="M2552 2550 c-141 -57 -164 -245 -41 -327 35 -23 53 -28 104 -28 51 0
69 5 101 27 57 40 78 80 78 154 0 64 -15 99 -58 137 -49 43 -129 59 -184 37z
m156 -37 c101 -74 97 -210 -7 -280 -72 -49 -193 -18 -232 59 -23 45 -25 118
-4 159 9 16 35 43 58 60 38 28 48 30 100 27 37 -3 67 -12 85 -25z"/>
<path d="M3035 2397 c-121 -148 -155 -210 -155 -282 0 -55 29 -91 111 -141
109 -66 213 -76 223 -21 13 68 36 290 36 339 0 112 -44 169 -127 167 -34 0
-43 -6 -88 -62z"/>
<path d="M3810 2337 c0 -63 -29 -249 -49 -314 -10 -34 2 -47 14 -16 31 82 66
375 46 387 -8 5 -11 -12 -11 -57z"/>
<path d="M3364 2380 c-49 -19 -102 -116 -90 -165 15 -59 110 -34 145 37 23 49
26 70 11 98 -15 27 -41 39 -66 30z"/>
<path d="M3490 2208 c-24 -40 -25 -52 -4 -72 27 -27 58 -17 80 26 23 44 11 78
-26 78 -23 0 -35 -7 -50 -32z"/>
<path d="M3365 2030 c-15 -16 -17 -25 -9 -38 15 -23 48 -26 68 -6 15 14 15 19
3 38 -20 29 -40 31 -62 6z"/>
<path d="M3491 1900 c-1 -38 44 -157 74 -196 38 -49 42 -36 7 19 -16 26 -37
72 -46 104 -10 32 -21 67 -26 78 -8 18 -9 18 -9 -5z"/>
<path d="M2762 1880 c-81 -19 -144 -88 -126 -137 15 -44 60 -51 128 -20 98 45
136 115 84 151 -24 17 -36 18 -86 6z"/>
<path d="M3405 1878 c-30 -16 -94 -79 -115 -113 -25 -41 -62 -135 -52 -135 4
0 20 29 35 64 27 62 95 144 147 178 28 19 16 24 -15 6z"/>
<path d="M3230 1570 c0 -6 31 -10 73 -10 66 0 91 -4 167 -26 20 -5 23 -4 13 6
-27 29 -253 56 -253 30z"/>
<path d="M3762 1528 c-54 -44 -102 -124 -102 -170 0 -44 8 -68 23 -68 7 0 7 4
-1 12 -52 52 89 257 169 246 16 -3 26 -1 23 4 -13 20 -73 7 -112 -24z"/>
<path d="M2875 1476 c-94 -30 -145 -75 -145 -128 0 -22 6 -31 28 -39 60 -23
220 37 252 95 14 26 14 28 -18 57 -35 32 -56 34 -117 15z"/>
<path d="M3225 1331 c-32 -32 -251 -127 -318 -137 -20 -4 -40 -11 -43 -16 -11
-18 76 2 168 38 89 34 213 99 224 115 7 12 -19 12 -31 0z"/>
</g>
</svg>
